<?xml version="1.0" standalone="no"?>
<!DOCTYPE svg PUBLIC "-//W3C//DTD SVG 20010904//EN"
 "http://www.w3.org/TR/2001/REC-SVG-20010904/DTD/svg10.dtd">
<svg version="1.0" xmlns="http://www.w3.org/2000/svg"
 width="256.000000pt" height="256.000000pt" viewBox="0 0 256.000000 256.000000"
 preserveAspectRatio="xMidYMid meet">

<g transform="translate(0.000000,256.000000) scale(0.100000,-0.100000)"
fill="#000000" stroke="none">
<path d="M1138 1965 c-122 -31 -211 -102 -247 -201 -34 -89 -28 -99 64 -109
33 -3 77 -8 98 -11 36 -6 38 -4 53 33 35 84 106 124 184 103 67 -18 90 -55 90
-145 l0 -54 -57 -6 c-276 -31 -386 -83 -450 -213 -25 -50 -28 -68 -28 -152 0
-86 3 -100 29 -148 55 -99 142 -138 285 -130 89 5 147 29 212 87 l43 38 62
-65 c49 -51 65 -62 78 -55 39 22 166 137 166 151 0 8 -12 31 -27 50 -48 64
-52 89 -53 348 0 256 -7 304 -50 368 -29 41 -83 79 -145 101 -67 24 -231 29
-307 10z m240 -628 c-5 -118 -33 -173 -104 -207 -40 -20 -50 -21 -85 -11 -48
14 -71 47 -77 110 -5 59 10 110 43 141 32 30 119 59 179 60 l48 0 -4 -93z"/>
</g>
</svg>
